<?xml version="1.0" standalone="no"?>
<svg xmlns="http://www.w3.org/2000/svg" width="329.7799397331037" height="107.85993973310373" viewBox="0 0 329.7799397331037 107.85993973310373"><g fill="#000000" color="#000000" transform="translate(0 0) scale(1.0785994)"><svg width="100.0" height="100.0" x="0.0" y="0.0" viewBox="0 0 100 100"><path d="M37.84,38.334c0.958,0,1.736-0.777,1.736-1.734c0-0.097-0.014-0.188-0.028-0.282l4.622-1.605  c0.234,0.681,0.875,1.173,1.633,1.173c0.731,0,1.355-0.455,1.61-1.097l6.346,3.718c-0.057,0.171-0.096,0.353-0.096,0.544  c0,0.956,0.779,1.735,1.736,1.735c0.871,0,1.588-0.648,1.711-1.486l7.032-4.088c0.318,0.407,0.808,0.674,1.364,0.674  c0.956,0,1.734-0.778,1.734-1.735c0-0.956-0.778-1.735-1.734-1.735c-0.958,0-1.736,0.779-1.736,1.735  c0,0.107,0.013,0.212,0.032,0.316l-6.792,3.947c-0.256-0.643-0.88-1.1-1.611-1.1c-0.472,0-0.898,0.189-1.211,0.497l-6.675-3.91  c-0.122-0.838-0.839-1.486-1.711-1.486c-0.861,0-1.574,0.634-1.707,1.46l-4.87,1.691c-0.315-0.423-0.816-0.702-1.386-0.702  c-0.957,0-1.734,0.779-1.734,1.736S36.883,38.334,37.84,38.334z M65.507,33.23c0.505,0,0.917,0.412,0.917,0.919  c0,0.506-0.412,0.919-0.917,0.919c-0.509,0-0.92-0.413-0.92-0.919C64.587,33.643,64.998,33.23,65.507,33.23z M55.399,38.131  c0.506,0,0.919,0.412,0.919,0.919c0,0.506-0.413,0.919-0.919,0.919s-0.919-0.413-0.919-0.919  C54.48,38.543,54.894,38.131,55.399,38.131z M45.803,33.23c0.507,0,0.919,0.412,0.919,0.919c0,0.506-0.412,0.919-0.919,0.919  c-0.506,0-0.918-0.413-0.918-0.919C44.885,33.643,45.297,33.23,45.803,33.23z M37.84,35.681c0.508,0,0.92,0.412,0.92,0.919  s-0.412,0.918-0.92,0.918c-0.506,0-0.917-0.411-0.917-0.918S37.334,35.681,37.84,35.681z"></path><path d="M38.093,55.246c8.831,6.67,21.441,6.006,29.492-2.045c8.803-8.804,8.803-23.075,0-31.879  c-8.804-8.804-23.075-8.804-31.878,0c-8.051,8.05-8.717,20.658-2.047,29.491l-5.477,5.478l-1.877-1.875L5,75.725l8.182,8.182  l21.31-21.309l-1.877-1.871L38.093,55.246z M39.541,25.157c6.688-6.688,17.523-6.683,24.208,0c6.352,6.352,6.656,16.443,0.94,23.166  V37.09c-2.172,0.48-3.989,3.183-7.146,4.921c-0.072,0.039-0.135,0.062-0.205,0.099v11.277c-0.837,0.293-1.687,0.535-2.551,0.695  V42.606c-1.992-0.433-3.298-3.022-6.84-5.089c-0.166-0.097-0.338-0.182-0.511-0.257v16.573c-0.868-0.219-1.721-0.5-2.552-0.857  V36.798c-2.605,0.068-5.41,1.475-7.351,2.681v7.454C32.955,40.268,33.616,31.085,39.541,25.157z"></path><path d="M94.431,46.87c0,0-7.129-9.424-8.768-11.636c-1.639-2.213,0.247-5.49,0.247-5.49c0.974-4.018-3.572-11.07-5.972-14.427  c-0.829-1.16-5.854-6.503-13.429-8.396c-11.855-2.964-29.209-3.793-39.453,7.891c-14.988,17.092-9.427,35.108-7.15,40.651l6.4-6.404  l1.877,1.876l0.62-0.62c-5.792-10.142-4.208-23.238,4.226-31.67c4.972-4.974,11.584-7.713,18.616-7.713  c7.033,0,13.644,2.739,18.617,7.713c4.973,4.973,7.711,11.585,7.711,18.617s-2.738,13.645-7.711,18.617  c-4.964,4.965-11.564,7.699-18.585,7.699l0,0c-4.582,0-9.123-1.219-13.083-3.477l-0.619,0.621l1.876,1.871l-5.111,5.111  c2.927,1.818,3.809,4.322,3.809,4.322l2.296,5.979c1.063,3.443,1.228,8.193,1.228,8.193v8.768h31.302  c0-0.818,0.327-8.275,0.327-8.275c1.966-7.047,3.277-4.67,10.323-5.98c7.048-1.312,5.981-5.328,5.734-6.146  c-0.244-0.818-1.146-3.359-1.146-5.162s0.736-2.949,2.212-4.18c1.477-1.229,0.656-2.539,0.656-2.539s-1.723-1.064-2.294-1.639  c-0.574-0.574,1.72-1.393,1.72-1.393c2.213-0.902-0.082-4.016-0.082-5.49s0.247-2.375,2.787-3.852  C96.15,48.835,94.431,46.87,94.431,46.87z"></path></svg></g><path fill="#030202" fill-rule="nonzero" d="M13.12 30.32L7.20 30.80L7.20 18.68L0 0.56L6.44 0.56L10.56 13.04L15 0.56L20.04 0.56L13.12 18L13.12 30.32ZM37.96 30.56L22.88 30.56L22.88 0.56L38.12 0.56L37.64 5.24L28.76 5.24L28.76 12.40L35.08 12.40L35.04 17.44L28.76 17.44L28.76 25.88L38.44 25.88L37.96 30.56ZM50.12 31.12Q46.48 31.12 43.98 29.10Q41.48 27.08 40.32 23.68L40.32 23.68L45.28 21.36L45.76 22.16Q46.92 24.16 47.98 25.28Q49.04 26.40 50.64 26.40L50.64 26.40Q51.68 26.40 52.50 25.40Q53.32 24.40 53.32 23.20L53.32 23.20Q53.32 22.08 52.76 21.16Q52.20 20.24 51.32 19.68L51.32 19.68L46.08 16.56Q43.80 15.28 42.44 13.32Q41.08 11.36 41.08 8.92L41.08 8.92Q41.08 6.32 42.30 4.28Q43.52 2.24 45.62 1.12Q47.72 0 50.36 0L50.36 0Q53.44 0 55.60 1.52Q57.76 3.04 58.80 6.04L58.80 6.04L53.84 8.28Q53.68 7.96 53.16 6.84Q52.64 5.72 51.90 5.22Q51.16 4.72 50.08 4.72L50.08 4.72Q48.76 4.72 48.06 5.56Q47.36 6.40 47.36 7.72L47.36 7.72Q47.36 8.68 47.90 9.46Q48.44 10.24 49.20 10.68L49.20 10.68L54.04 13.52Q59.40 16.56 59.68 21.52L59.68 21.52Q59.68 24.36 58.42 26.54Q57.16 28.72 54.98 29.92Q52.80 31.12 50.12 31.12L50.12 31.12ZM69.40 30.32L63.52 30.80L63.52 1.04L69.40 0.56L69.40 30.32ZM75 30.56L75 0.56L81.16 0.56Q87.08 0.56 90 4.32Q92.92 8.08 92.92 15.68L92.92 15.68Q92.92 19.72 91.82 23.08Q90.72 26.44 88.32 28.50Q85.92 30.56 82.20 30.56L82.20 30.56L75 30.56ZM80.84 25.88L81.68 25.88Q84.72 25.88 85.90 23.26Q87.08 20.64 87.08 16.80L87.08 16.80L87.08 15.44Q87.08 12.68 86.74 10.54Q86.40 8.40 85.18 6.82Q83.96 5.24 81.52 5.24L81.52 5.24L80.84 5.24L80.84 25.88Z" transform="translate(122.86 0) scale(2.227)"></path><path fill="#030202" fill-rule="nonzero" d="M13.52 30L7.08 30L0 0.24L6.96 0L10.92 20.72L15.08 0.24L20.72 0L13.52 30ZM26.72 30L21.48 30L27.80 0.36L36.16 0L42.64 29.76L36.24 30L35.16 23.56L28 23.56L26.72 30ZM31.32 4.40L29.08 18.76L34.08 18.76L31.32 4.40ZM60.96 30L45.88 30L45.88 0.48L51.72 0L51.72 25.32L61.56 25.32L60.96 30ZM79.72 30L64.64 30L64.64 0L79.88 0L79.40 4.68L70.52 4.68L70.52 11.84L76.84 11.84L76.80 16.88L70.52 16.88L70.52 25.32L80.20 25.32L79.72 30ZM102.80 29.76L97.96 30.24L89.20 11.48L89.20 29.76L83.96 30L83.96 0.24L90.08 0L97.84 17.84L97.84 0.48L102.80 0L102.80 29.76ZM122.60 30L106.80 30L106.80 26.28L116.44 4.68L107.72 4.68L108.20 0L123.24 0L123.24 3.88L113.84 25.32L123.52 25.32L122.60 30ZM136 30.56Q131.52 30.56 129.28 27.68Q127.04 24.80 127.04 20.12L127.04 20.12L127.04 0.24L132.92 0L132.92 20.60Q132.92 22.16 133.10 23.24Q133.28 24.32 134 25.08Q134.72 25.84 136.20 25.84L136.20 25.84Q137.60 25.84 138.26 25.06Q138.92 24.28 139.08 23.22Q139.24 22.16 139.24 20.52L139.24 20.52L139.24 0.48L144.60 0L144.60 19.44Q144.60 23.68 142.94 27.12Q141.28 30.56 136 30.56L136 30.56ZM165.08 30L150 30L150 0L165.24 0L164.76 4.68L155.88 4.68L155.88 11.84L162.20 11.84L162.16 16.88L155.88 16.88L155.88 25.32L165.56 25.32L165.08 30ZM184.40 30L169.32 30L169.32 0.48L175.16 0L175.16 25.32L185.00 25.32L184.40 30ZM191.00 30L185.76 30L192.08 0.36L200.44 0L206.92 29.76L200.52 30L199.44 23.56L192.28 23.56L191.00 30ZM195.60 4.40L193.36 18.76L198.36 18.76L195.60 4.40Z" transform="translate(122.86 77.3) scale(1)"></path></svg>